<svg xmlns="http://www.w3.org/2000/svg" xmlns:xlink="http://www.w3.org/1999/xlink"><symbol viewBox="0 0 512 512" aria-labelledby="aicon-facebook-desc aicon-facebook-title" id="icon-facebook"><title id="aicon-facebook-title">Facebook</title><desc id="aicon-facebook-desc">Facebook social media icon</desc><path d="M296.296 512H200.36V256h-64v-88.225l64-.029-.104-51.976C200.256 43.794 219.773 0 304.556 0h70.588v88.242h-44.115c-33.016 0-34.604 12.328-34.604 35.342l-.131 44.162h79.346l-9.354 88.225-69.926.029-.064 256z"/></symbol><symbol viewBox="0 0 512.002 512.002" aria-labelledby="bicon-twitter-desc bicon-twitter-title" id="icon-twitter"><title id="bicon-twitter-title">Twitter</title><desc id="bicon-twitter-desc">Twitter social media icon</desc><path d="M512.002 97.211c-18.84 8.354-39.082 14.001-60.33 16.54 21.686-13 38.342-33.585 46.186-58.115a210.29 210.29 0 0 1-66.705 25.49c-19.16-20.415-46.461-33.17-76.674-33.17-58.011 0-105.042 47.029-105.042 105.039 0 8.233.929 16.25 2.72 23.939-87.3-4.382-164.701-46.2-216.509-109.753-9.042 15.514-14.223 33.558-14.223 52.809 0 36.444 18.544 68.596 46.73 87.433a104.614 104.614 0 0 1-47.577-13.139c-.01.438-.01.878-.01 1.321 0 50.894 36.209 93.348 84.261 103a105.245 105.245 0 0 1-27.674 3.687c-6.769 0-13.349-.66-19.764-1.888 13.368 41.73 52.16 72.104 98.126 72.949-35.95 28.176-81.243 44.967-130.458 44.967-8.479 0-16.84-.496-25.058-1.471 46.486 29.807 101.701 47.197 161.021 47.197 193.211 0 298.868-160.062 298.868-298.872 0-4.554-.104-9.084-.305-13.59 20.526-14.809 38.335-33.309 52.417-54.373z"/></symbol></svg>